<svg width="256" height="257" viewBox="0 0 256 257" fill="none" xmlns="http://www.w3.org/2000/svg">
    <g clip-path="url(#clip0_35749_113888)">
        <path fill-rule="evenodd" clip-rule="evenodd"
              d="M225.557 81.3209C236.342 65.4569 256.003 76.2146 256.003 93.1667L256.003 162.871C255.689 168.898 253.095 174.678 248.789 178.94L185.957 241.491C181.106 246.294 174.334 248.365 167.765 247.056C167.765 247.056 -18.0717 207.87 77.7044 183.79C173.48 159.71 225.557 81.3209 225.557 81.3209Z"
              fill="#767676"/>
        <path fill-rule="evenodd" clip-rule="evenodd"
              d="M225.557 81.3209C236.342 65.4569 256.003 76.2146 256.003 93.1667L256.003 162.871C255.689 168.898 253.095 174.678 248.789 178.94L185.957 241.491C181.106 246.294 174.334 248.365 167.765 247.056C167.765 247.056 -18.0717 207.87 77.7044 183.79C173.48 159.71 225.557 81.3209 225.557 81.3209Z"
              fill="url(#paint0_linear_35749_113888)"/>
        <path fill-rule="evenodd" clip-rule="evenodd"
              d="M225.557 81.3209C236.342 65.4569 256.003 76.2146 256.003 93.1667L256.003 162.871C255.689 168.898 253.095 174.678 248.789 178.94L185.957 241.491C181.106 246.294 174.334 248.365 167.765 247.056C167.765 247.056 -18.0717 207.87 77.7044 183.79C173.48 159.71 225.557 81.3209 225.557 81.3209Z"
              fill="url(#paint1_linear_35749_113888)"/>
        <path fill-rule="evenodd" clip-rule="evenodd"
              d="M200.821 226.951L200.886 227.018L243.8 184.183C231.141 196.878 198.081 197.132 167.387 181.963C146.916 171.846 132.766 152.36 120.213 132.704L50.9667 23.2435L6.14918 69.2922C2.34123 73.1836 -0.140959 78.6088 -0.371754 84.2966L-0.124558 172.861C-0.366636 178.827 1.76752 184.632 5.77273 188.902L62.738 249.978C66.6556 254.155 72.0268 256.504 77.6312 256.491L162.772 256.491C168.028 256.48 173.097 254.201 176.934 250.456L200.821 226.951Z"
              fill="#4F1A1A"/>
        <path fill-rule="evenodd" clip-rule="evenodd"
              d="M200.821 226.951L200.886 227.018L243.8 184.183C231.141 196.878 198.081 197.132 167.387 181.963C146.916 171.846 132.766 152.36 120.213 132.704L50.9667 23.2435L6.14918 69.2922C2.34123 73.1836 -0.140959 78.6088 -0.371754 84.2966L-0.124558 172.861C-0.366636 178.827 1.76752 184.632 5.77273 188.902L62.738 249.978C66.6556 254.155 72.0268 256.504 77.6312 256.491L162.772 256.491C168.028 256.48 173.097 254.201 176.934 250.456L200.821 226.951Z"
              fill="url(#paint2_linear_35749_113888)"/>
        <path fill-rule="evenodd" clip-rule="evenodd"
              d="M200.821 226.951L200.886 227.018L243.8 184.183C231.141 196.878 198.081 197.132 167.387 181.963C146.916 171.846 132.766 152.36 120.213 132.704L50.9667 23.2435L6.14918 69.2922C2.34123 73.1836 -0.140959 78.6088 -0.371754 84.2966L-0.124558 172.861C-0.366636 178.827 1.76752 184.632 5.77273 188.902L62.738 249.978C66.6556 254.155 72.0268 256.504 77.6312 256.491L162.772 256.491C168.028 256.48 173.097 254.201 176.934 250.456L200.821 226.951Z"
              fill="url(#paint3_linear_35749_113888)"/>
        <path fill-rule="evenodd" clip-rule="evenodd"
              d="M200.821 226.951L200.886 227.018L243.8 184.183C231.141 196.878 198.081 197.132 167.387 181.963C146.916 171.846 132.766 152.36 120.213 132.704L50.9667 23.2435L6.14918 69.2922C2.34123 73.1836 -0.140959 78.6088 -0.371754 84.2966L-0.124558 172.861C-0.366636 178.827 1.76752 184.632 5.77273 188.902L62.738 249.978C66.6556 254.155 72.0268 256.504 77.6312 256.491L162.772 256.491C168.028 256.48 173.097 254.201 176.934 250.456L200.821 226.951Z"
              fill="url(#paint4_linear_35749_113888)"/>
        <path fill-rule="evenodd" clip-rule="evenodd"
              d="M39.7396 165.955C58.245 130.25 64.1653 139.722 131.979 86.4893C163.441 61.7923 181.699 32.695 190.598 15.4329C194.267 8.31423 189.182 0.375727 181.428 0.37548L81.7073 0.372301C76.2495 0.372121 71.011 2.61131 67.1253 6.60542L5.79802 69.6429C1.84189 73.7094 -0.385248 79.2586 -0.385247 85.0495L-0.385284 173.39C-0.38529 179.028 1.72607 184.443 5.49939 188.483L54.7927 241.262C54.7927 241.262 20.0109 204.021 39.7396 165.955Z"
              fill="#585858"/>
        <path fill-rule="evenodd" clip-rule="evenodd"
              d="M39.7396 165.955C58.245 130.25 64.1653 139.722 131.979 86.4893C163.441 61.7923 181.699 32.695 190.598 15.4329C194.267 8.31423 189.182 0.375727 181.428 0.37548L81.7073 0.372301C76.2495 0.372121 71.011 2.61131 67.1253 6.60542L5.79802 69.6429C1.84189 73.7094 -0.385248 79.2586 -0.385247 85.0495L-0.385284 173.39C-0.38529 179.028 1.72607 184.443 5.49939 188.483L54.7927 241.262C54.7927 241.262 20.0109 204.021 39.7396 165.955Z"
              fill="url(#paint5_linear_35749_113888)"/>
        <path fill-rule="evenodd" clip-rule="evenodd"
              d="M39.7396 165.955C58.245 130.25 64.1653 139.722 131.979 86.4893C163.441 61.7923 181.699 32.695 190.598 15.4329C194.267 8.31423 189.182 0.375727 181.428 0.37548L81.7073 0.372301C76.2495 0.372121 71.011 2.61131 67.1253 6.60542L5.79802 69.6429C1.84189 73.7094 -0.385248 79.2586 -0.385247 85.0495L-0.385284 173.39C-0.38529 179.028 1.72607 184.443 5.49939 188.483L54.7927 241.262C54.7927 241.262 20.0109 204.021 39.7396 165.955Z"
              fill="url(#paint6_linear_35749_113888)"/>
        <path fill-rule="evenodd" clip-rule="evenodd"
              d="M39.7396 165.955C58.245 130.25 64.1653 139.722 131.979 86.4893C163.441 61.7923 181.699 32.695 190.598 15.4329C194.267 8.31423 189.182 0.375727 181.428 0.37548L81.7073 0.372301C76.2495 0.372121 71.011 2.61131 67.1253 6.60542L5.79802 69.6429C1.84189 73.7094 -0.385248 79.2586 -0.385247 85.0495L-0.385284 173.39C-0.38529 179.028 1.72607 184.443 5.49939 188.483L54.7927 241.262C54.7927 241.262 20.0109 204.021 39.7396 165.955Z"
              fill="url(#paint7_linear_35749_113888)"/>
    </g>
    <defs>
        <linearGradient id="paint0_linear_35749_113888" x1="199.61" y1="182.145" x2="275.086" y2="100.174"
                        gradientUnits="userSpaceOnUse">
            <stop stop-color="#114A85"/>
            <stop offset="0.795693" stop-color="#028EDB"/>
        </linearGradient>
        <linearGradient id="paint1_linear_35749_113888" x1="202.323" y1="204.619" x2="303.617" y2="39.7664"
                        gradientUnits="userSpaceOnUse">
            <stop stop-color="#114A85"/>
            <stop offset="0.67" stop-color="#028EDB"/>
        </linearGradient>
        <linearGradient id="paint2_linear_35749_113888" x1="50.269" y1="172.412" x2="184.68" y2="173.386"
                        gradientUnits="userSpaceOnUse">
            <stop offset="0.074218" stop-color="#0669B6"/>
            <stop offset="0.261846" stop-color="#0E7FCB"/>
            <stop offset="0.544674" stop-color="#148DD9"/>
            <stop offset="0.95" stop-color="#3CC5EE"/>
        </linearGradient>
        <linearGradient id="paint3_linear_35749_113888" x1="48.737" y1="221.895" x2="202.058" y2="199.737"
                        gradientUnits="userSpaceOnUse">
            <stop offset="0.31" stop-color="#0094E5"/>
            <stop offset="1" stop-color="#40D8F9"/>
        </linearGradient>
        <linearGradient id="paint4_linear_35749_113888" x1="34.0562" y1="141.475" x2="182.661" y2="185.728"
                        gradientUnits="userSpaceOnUse">
            <stop offset="0.09" stop-opacity="0.2"/>
            <stop offset="0.55" stop-opacity="0"/>
        </linearGradient>
        <linearGradient id="paint5_linear_35749_113888" x1="145.751" y1="25.5529" x2="14.9635" y2="113.585"
                        gradientUnits="userSpaceOnUse">
            <stop stop-color="#BDF5FF"/>
            <stop offset="1" stop-color="#40D9FA"/>
        </linearGradient>
        <linearGradient id="paint6_linear_35749_113888" x1="4.02556" y1="189.638" x2="139.169" y2="99.7965"
                        gradientUnits="userSpaceOnUse">
            <stop stop-color="#3CC5EE"/>
            <stop offset="1" stop-color="#50E0FF"/>
        </linearGradient>
        <linearGradient id="paint7_linear_35749_113888" x1="43.3035" y1="123.899" x2="94.084" y2="149.733"
                        gradientUnits="userSpaceOnUse">
            <stop stop-color="#A1ECFF" stop-opacity="0"/>
            <stop offset="0.9" stop-color="#A1ECFF" stop-opacity="0.9"/>
        </linearGradient>
        <clipPath id="clip0_35749_113888">
            <rect width="256" height="256" fill="white" transform="translate(0 0.5)"/>
        </clipPath>
    </defs>
</svg>